Coordinates
version=1
nRows=32
nColumns=12
inDegrees=yes

Units are S.I. units (second, meters, Newtons, ...)
Angles are in degrees

endheader
time	SC_y	SC_z	SC_x	AC_y	AC_z	AC_x	GH_y	GH_z	GH_yy	EL_x	PS_y
       0.0              -20.76          7.157          43.39          49.74          -1.12         0.6531          32.02         -8.748         -168.0          23.89          35.28
    0.0157              -20.76          7.161          43.39          49.74         -1.121         0.6512          32.04         -8.746         -168.0          23.89          35.28
    0.0314              -20.76          7.165          43.39          49.74         -1.122         0.6493          32.06         -8.744         -168.0           23.9          35.29
    0.0471              -20.77           7.17          43.38          49.74         -1.123         0.6472          32.09         -8.742         -168.0          23.91           35.3
    0.0628              -20.77          7.175          43.38          49.74         -1.124          0.645          32.11          -8.74         -168.0          23.91          35.31
   0.07851              -20.77           7.18          43.38          49.73         -1.126         0.6426          32.14         -8.738         -168.0          23.92          35.31
   0.09421              -20.77          7.186          43.38          49.73         -1.127         0.6401          32.17         -8.736         -168.0          23.93          35.32
    0.1099              -20.78          7.192          43.37          49.73         -1.129         0.6374           32.2         -8.733         -168.0          23.94          35.33
    0.1256              -20.78          7.198          43.37          49.73         -1.131         0.6346          32.23          -8.73         -167.9          23.95          35.34
    0.1413              -20.78          7.205          43.37          49.73         -1.132         0.6315          32.26         -8.727         -167.9          23.96          35.35
     0.157              -20.78          7.213          43.36          49.73         -1.134         0.6282           32.3         -8.724         -167.9          23.97          35.36
    0.1727              -20.79          7.221          43.36          49.73         -1.136         0.6246          32.34         -8.721         -167.9          23.98          35.38
    0.1884              -20.79           7.23          43.35          49.73         -1.139         0.6208          32.39         -8.717         -167.9          23.99          35.39
    0.2041              -20.79          7.239          43.35          49.73         -1.141         0.6166          32.43         -8.713         -167.9          24.01           35.4
    0.2198               -20.8          7.249          43.34          49.73         -1.144         0.6121          32.48         -8.709         -167.9          24.02          35.42
    0.2355               -20.8           7.26          43.34          49.73         -1.147         0.6072          32.54         -8.704         -167.9          24.04          35.44
    0.2512              -20.81          7.272          43.33          49.73          -1.15         0.6019           32.6         -8.699         -167.9          24.06          35.46
    0.2669              -20.81          7.285          43.32          49.73         -1.153         0.5962          32.67         -8.694         -167.9          24.08          35.48
    0.2826              -20.82          7.299          43.31          49.73         -1.157         0.5899          32.74         -8.688         -167.8           24.1           35.5
    0.2983              -20.83          7.315          43.31          49.73         -1.161          0.583          32.82         -8.681         -167.8          24.12          35.52
     0.314              -20.83          7.332           43.3          49.73         -1.165         0.5754           32.9         -8.674         -167.8          24.15          35.55
    0.3297              -20.84          7.351          43.29          49.72          -1.17         0.5671           33.0         -8.666         -167.8          24.18          35.58
    0.3454              -20.85          7.371          43.28          49.72         -1.175         0.5579           33.1         -8.657         -167.8          24.21          35.61
    0.3611              -20.86          7.394          43.26          49.72         -1.181         0.5477          33.22         -8.648         -167.7          24.24          35.65
    0.3768              -20.87           7.42          43.25          49.72         -1.188         0.5363          33.35         -8.637         -167.7          24.28          35.68
    0.3925              -20.88          7.448          43.23          49.72         -1.195         0.5237          33.49         -8.625         -167.7          24.32          35.73
    0.4082              -20.89           7.48          43.22          49.72         -1.204         0.5095          33.65         -8.612         -167.6          24.37          35.78
    0.4239              -20.91          7.516           43.2          49.71         -1.213         0.4935          33.83         -8.596         -167.6          24.42          35.83
    0.4396              -20.93          7.557          43.18          49.71         -1.224         0.4755          34.04         -8.579         -167.6          24.49           35.9
    0.4553              -20.94          7.603          43.15          49.71         -1.236         0.4551          34.27          -8.56         -167.5          24.55          35.97
     0.471              -20.97          7.656          43.12          49.71         -1.249         0.4317          34.53         -8.538         -167.5          24.63          36.05
    0.4867              -20.99          7.716          43.09           49.7         -1.265         0.4049          34.84         -8.512         -167.4          24.72          36.14
